<svg width="121" height="22" viewBox="0 0 121 22" fill="none" xmlns="http://www.w3.org/2000/svg">
<path d="M0.960938 3.77148V18.8572H16.0969L13.0547 15.8652H3.97808V6.78863L6.99522 9.80577H11.5461L5.51179 3.77148H0.960938Z" fill="#FBC901"/>
<path d="M23.5896 18.8572V3.77148H8.50391L11.5462 6.76348H20.5725V15.8401L17.5553 12.8229H13.0548L19.089 18.8572H23.5896Z" fill="#046F7B"/>
<path d="M32.4756 8.63268C33.1168 7.36925 34.3236 6.5961 35.8133 6.5961V8.91553C33.7768 8.91553 32.4756 10.0847 32.4756 11.9138V16.5715H29.7225V6.82239H32.4756V8.63268ZM42.0028 14.3652C42.7759 14.3652 43.7188 14.007 44.2468 13.4978L46.0005 15.2892C45.133 16.1944 43.4548 16.7978 42.0216 16.7978C39.1176 16.7978 36.8548 14.667 36.8548 11.6687C36.8548 8.72696 39.0233 6.5961 41.8708 6.5961C44.9256 6.5961 46.717 8.91553 46.717 12.5927H39.6833C40.0039 13.6487 40.8525 14.3652 42.0028 14.3652ZM41.9839 9.02868C40.9468 9.02868 40.0793 9.6321 39.721 10.6127H44.077C43.813 9.65096 43.0965 9.02868 41.9839 9.02868ZM50.1448 9.99039C49.1642 9.99039 48.3911 9.19839 48.3911 8.23668C48.3911 7.35039 49.1642 6.55839 50.1448 6.55839C51.0688 6.55839 51.8231 7.35039 51.8231 8.23668C51.8231 9.19839 51.0688 9.99039 50.1448 9.99039ZM50.1448 16.7978C49.1642 16.7978 48.3911 16.0058 48.3911 15.0441C48.3911 14.1578 49.1642 13.3658 50.1448 13.3658C51.0688 13.3658 51.8231 14.1578 51.8231 15.0441C51.8231 16.0058 51.0688 16.7978 50.1448 16.7978ZM58.8198 16.7978C55.9346 16.7978 53.5021 14.4595 53.5021 11.6875C53.5021 8.91553 55.9535 6.5961 58.8386 6.5961C60.4226 6.5961 61.7238 7.23725 62.6666 8.25553L60.8375 9.82068C60.3472 9.27382 59.5741 8.91553 58.8198 8.91553C57.3866 8.91553 56.1798 10.179 56.1798 11.6687C56.1798 13.1961 57.3866 14.4784 58.8386 14.4784C59.5929 14.4784 60.3849 14.1012 60.8941 13.5355L62.7232 15.0818C61.7615 16.1378 60.4415 16.7978 58.8198 16.7978ZM70.8479 6.82239H73.601V16.5715H70.8479V15.3458C70.2633 16.2321 69.1696 16.7978 67.9061 16.7978C65.7941 16.7978 64.2856 15.2327 64.2856 13.0264V6.82239H66.9444V12.4418C66.9444 13.6487 67.6987 14.4784 68.7924 14.4784C69.9427 14.4784 70.829 13.6487 70.829 12.5927L70.8479 12.6492V6.82239ZM78.7161 8.63268C79.3573 7.36925 80.5641 6.5961 82.0539 6.5961V8.91553C80.0173 8.91553 78.7161 10.0847 78.7161 11.9138V16.5715H75.963V6.82239H78.7161V8.63268ZM86.3953 8.63268C87.0364 7.36925 88.2433 6.5961 89.733 6.5961V8.91553C87.6964 8.91553 86.3953 10.0847 86.3953 11.9138V16.5715H83.6421V6.82239H86.3953V8.63268ZM95.9224 14.3652C96.6955 14.3652 97.6384 14.007 98.1664 13.4978L99.9201 15.2892C99.0527 16.1944 97.3744 16.7978 95.9413 16.7978C93.0373 16.7978 90.7744 14.667 90.7744 11.6687C90.7744 8.72696 92.943 6.5961 95.7904 6.5961C98.8453 6.5961 100.637 8.91553 100.637 12.5927H93.603C93.9235 13.6487 94.7721 14.3652 95.9224 14.3652ZM95.9035 9.02868C94.8664 9.02868 93.999 9.6321 93.6407 10.6127H97.9967C97.7327 9.65096 97.0161 9.02868 95.9035 9.02868ZM108.138 6.5961C110.25 6.5961 111.758 8.16125 111.758 10.3675V16.5715H109.099V10.9521C109.099 9.74525 108.345 8.91553 107.251 8.91553C106.101 8.91553 105.215 9.74525 105.215 10.8012L105.196 10.7447V16.5715H102.443V6.82239H105.196V8.0481C105.78 7.16182 106.874 6.5961 108.138 6.5961ZM119.212 14.1578L119.872 15.9492C119.306 16.4584 118.42 16.7978 117.628 16.7978C115.912 16.7978 114.705 15.5721 114.705 13.8184V9.04753H113.366V6.82239H114.705V4.14467H117.345V6.82239H119.457V9.04753H117.345V13.3847C117.345 14.0258 117.76 14.4784 118.269 14.4784C118.646 14.4784 119.023 14.3464 119.212 14.1578Z" fill="#002F37"/>
</svg>
